<svg xmlns="http://www.w3.org/2000/svg" xmlns:xlink="http://www.w3.org/1999/xlink" viewBox="0 0 84 105" version="1.1" x="0px" y="0px"><title>medical5</title><desc>Created with Sketch.</desc><g stroke="none" stroke-width="1" fill="none" fill-rule="evenodd"><g fill="#000000"><path d="M20.4007084,50 C21.8762196,51.5025708 23.7119655,53.2058925 26.1900965,55.3963005 C26.6018904,55.7602831 27.458842,56.5116624 28.9058521,57.7784103 C29.1696404,58.0093367 30.3266772,59.022063 30.5993269,59.2607662 C31.1655006,59.756448 31.5104232,60.0587325 31.6886303,60.2155304 C33.9624224,62.2161563 35.7910587,63.8606314 37.5710692,65.5083776 C37.8407424,65.7580127 38.1028732,65.9443804 38.3792964,66.1096537 C38.6581082,66.276355 38.8976339,66.3904545 39.1155295,66.4810084 L38.6845995,66.2708021 C40.5131532,67.3027776 43.4862539,67.3030081 45.3153471,66.2708021 L44.8114202,66.5104873 C45.0389244,66.4211572 45.2866272,66.3081093 45.5759095,66.1392117 C45.8623886,65.9719508 46.1347179,65.7807728 46.4140205,65.5221812 C48.1987739,63.869772 50.0314022,62.2215898 52.3113697,60.2155304 C52.4895768,60.0587325 52.8344994,59.756448 53.4006731,59.2607662 C53.6733228,59.022063 54.8303596,58.0093367 55.0980053,57.7750335 C56.541158,56.5116624 57.3981096,55.7602831 57.8099035,55.3963005 C60.2880345,53.2058925 62.1237804,51.5025708 63.5992916,50 L57.8283844,50 C57.031354,50.733087 56.1480783,51.5266097 55.1608192,52.3992432 C54.1922148,53.255388 50.4419239,56.5324842 49.6690897,57.2124725 C47.4444703,59.1698332 45.5662978,60.8558878 43.6965126,62.5870235 C43.5766094,62.6980355 43.3494704,62.7872223 43.3494704,62.7872223 C42.7404035,63.1309349 41.2588184,63.1305506 40.6505831,62.7872826 C40.6505831,62.7872826 40.4132926,62.6886685 40.2883358,62.5729966 C38.4235534,60.8467774 36.5495208,59.1645462 34.3309103,57.2124725 C33.5580761,56.5324842 29.8077852,53.255388 28.8391808,52.3992432 C27.8519217,51.5266097 26.968646,50.733087 26.1716156,50 L20.4007084,50 L20.4007084,50 Z M13.4883673,39 C13.1594971,37.6453842 13,36.2434192 13,34.7589114 C13,25.353121 19.9203264,18 28.9499345,18 C33.8741417,18 38.8058366,20.4328438 41.9998544,24.3988181 C45.1938254,20.4329021 50.1257872,18 55.0500655,18 C64.0795156,18 71,25.3532599 71,34.7589114 C71,36.2434192 70.8405029,37.6453842 70.5116327,39 L66.3549936,39 C66.794234,37.6540404 67,36.2676717 67,34.7589114 C67,27.479136 61.785286,22 55.0500655,22 C51.361278,22 47.5651439,23.8656602 45.115175,26.9077576 L41.9998544,30.7760145 L38.8845338,26.9077576 C36.4345104,23.8655925 32.6386371,22 28.9499345,22 C22.2145362,22 17,27.4790187 17,34.7589114 C17,36.2676717 17.205766,37.6540404 17.6450064,39 L13.4883673,39 L13.4883673,39 Z M52.7917045,43.0085314 L48.320733,33.1723941 C47.5133206,31.3960869 44.900416,31.7090366 44.5353229,33.6257758 L41.6423578,48.8125796 L39.2888544,44.1055728 C38.9500704,43.4280048 38.2575441,43 37.5,43 L10,43 C8.8954305,43 8,43.8954305 8,45 C8,46.1045695 8.8954305,47 10,47 L36.2638434,46.9998227 L40.7111456,55.8944272 C41.5669159,57.6059678 44.1066268,57.2539886 44.4646771,55.3742242 L47.2999557,40.5931209 L49.679267,45.8276059 C50.0038073,46.5415945 50.715713,47 51.5,47 L75,47 C76.1045695,47 77,46.1045695 77,45 C77,43.8954305 76.1045695,43 75,43 L52.7917045,43.0085314 L52.7917045,43.0085314 Z"/></g></g></svg>
